<svg width="200" height="200" viewBox="0 0 200 200" fill="none" xmlns="http://www.w3.org/2000/svg">
<rect width="200" height="200" rx="100" fill="#CCBDFF"/>
<path d="M121.701 76.6137C119.544 72.9216 118.396 68.7266 118.372 64.45V54.0046C118.372 49.1116 116.429 44.419 112.971 40.9592C109.513 37.4993 104.823 35.5556 99.9323 35.5556C95.0418 35.5556 90.3516 37.4993 86.8935 40.9592C83.4355 44.419 81.4928 49.1116 81.4928 54.0046V64.4198C81.4979 68.5401 80.4614 72.5947 78.4798 76.2067C65.8119 91.4754 58.7563 110.626 58.4886 130.469C58.6684 131.929 59.3757 133.273 60.4773 134.248C61.5789 135.223 62.9988 135.761 64.4694 135.761C65.94 135.761 67.3598 135.223 68.4614 134.248C69.563 133.273 70.2704 131.929 70.4502 130.469C70.4458 125.651 70.9508 120.846 71.9567 116.134C74.6968 121.089 78.679 125.245 83.5115 128.193V162.86C83.5115 164.459 84.1464 165.992 85.2765 167.123C86.4066 168.254 87.9392 168.889 89.5374 168.889C91.1356 168.889 92.6683 168.254 93.7983 167.123C94.9284 165.992 95.5634 164.459 95.5634 162.86V132.473C96.4221 132.594 97.2958 132.684 98.1847 132.729C100.237 132.85 102.296 132.764 104.331 132.473V162.8C104.331 164.399 104.966 165.932 106.096 167.063C107.226 168.193 108.759 168.829 110.357 168.829C111.955 168.829 113.488 168.193 114.618 167.063C115.748 165.932 116.383 164.399 116.383 162.8V128.253C121.237 125.327 125.229 121.166 127.953 116.195C128.952 120.872 129.457 125.641 129.459 130.423C129.459 132.022 130.094 133.556 131.225 134.687C132.355 135.817 133.887 136.452 135.485 136.452C137.084 136.452 138.616 135.817 139.746 134.687C140.876 133.556 141.511 132.022 141.511 130.423C141.183 110.761 134.199 91.7912 121.701 76.6137Z" fill="#242145"/>
</svg>
