<svg width="200" height="200" viewBox="0 0 200 200" fill="none" xmlns="http://www.w3.org/2000/svg">
<g clip-path="url(#clip0_308_987)">
<rect width="200" height="200" rx="100" fill="#CCBDFF"/>
<path d="M149.884 189.018C129.572 207.611 51.3917 251.739 51.3917 251.739L47.2172 291.705C32.7627 291.551 18.341 290.249 4.09082 287.817C4.37088 286.707 4.3709 285.6 4.64767 284.21C7.43181 254.236 9.93593 232.869 17.4482 220.655C24.9604 208.445 60.8513 191.793 60.8513 191.793L149.884 189.018Z" fill="#2F3A52"/>
<path d="M145.153 189.018L60.8516 191.793L51.6687 195.957C64.4659 201.786 77.2663 207.334 78.38 236.197C102.584 221.766 135.971 201.229 149.328 189.572L145.153 189.018Z" fill="#242F47"/>
<path d="M150.718 213.72C149.885 226.484 137.921 236.754 110.376 248.688C110.376 248.688 109.82 266.45 108.706 293.369C100.917 299.198 87.5595 302.529 65.8597 300.862H65.5798C65.8104 300.147 65.9025 299.392 65.8597 298.641C65.8597 297.254 65.5798 295.867 65.5798 294.48C65.0229 278.661 64.1893 257.291 64.4661 246.467C65.0229 227.871 63.3556 220.935 102.307 207.058L149.885 189.018C150.893 197.209 151.173 205.476 150.718 213.72Z" fill="#2F3A52"/>
<path d="M150.718 213.72C151.173 205.476 150.893 197.209 149.882 189.018L102.027 207.058L94.7952 209.832C120.113 207.334 125.398 219.545 122.34 243.136C141.536 233.423 149.885 224.263 150.718 213.72Z" fill="#242F47"/>
<path d="M152.389 116.581C141.259 112.42 125.677 110.476 103.421 111.863C81.1608 113.253 71.4246 115.471 61.1282 119.635C47.4941 150.162 50.2783 173.2 60.8515 191.793C76.1099 198.29 92.7324 200.959 109.263 199.565C124.844 198.731 139.868 196.788 150.161 192.349C159.898 164.597 162.125 132.956 152.389 116.581Z" fill="#FFDB9E"/>
<path d="M79.2137 151.553L62.242 149.885C61.4084 149.609 60.8516 149.052 60.8516 148.498C60.9339 144.469 61.494 140.462 62.5187 136.564C62.7988 136.011 63.6324 135.454 64.1892 135.731C64.7461 136.011 65.5795 136.564 65.3027 137.398C64.4362 140.564 63.9683 143.826 63.9123 147.111L77.8233 148.498C78.0441 144.917 78.6997 141.378 79.7706 137.952C79.7706 137.398 80.6041 136.841 81.4377 137.118C81.6222 137.154 81.8001 137.223 81.9549 137.326C82.1131 137.428 82.2482 137.559 82.3503 137.714C82.4557 137.872 82.525 138.047 82.5613 138.228C82.5942 138.413 82.5942 138.601 82.5514 138.785C81.4641 142.489 80.8117 146.307 80.6041 150.162C80.6041 150.719 80.6041 150.996 80.0473 151.273L79.2137 151.553Z" fill="#F0B576"/>
<path d="M89.2294 197.898C88.8604 197.898 88.5078 197.753 88.2442 197.493C87.9839 197.232 87.839 196.88 87.839 196.511C83.1076 154.327 88.1158 139.062 96.1849 121.023C96.3332 120.654 96.6198 120.36 96.9855 120.205C97.3512 120.047 97.7631 120.044 98.1322 120.189C98.5012 120.337 98.7976 120.624 98.9525 120.99C99.1106 121.352 99.1139 121.764 98.969 122.133C90.8999 139.895 86.1685 154.604 90.6198 196.234C90.6264 196.633 90.488 197.018 90.2343 197.325C89.9773 197.628 89.6215 197.832 89.2294 197.898Z" fill="#F0B576"/>
<path d="M34.6973 46.368C35.2541 60.2426 70.0312 62.4633 70.0312 62.4633L73.3723 49.9759L34.6973 46.368Z" fill="#0E2369"/>
<path d="M121.816 27.482L121.875 27.2085C122.195 25.7093 121.236 24.2366 119.73 23.917L112.03 22.2827C110.528 21.9664 109.048 22.9219 108.729 24.4211L108.673 24.6945C108.353 26.1937 109.312 27.6665 110.814 27.9861L118.518 29.617C120.02 29.9366 121.496 28.9811 121.816 27.482Z" fill="#1839AD"/>
<path d="M61.4077 95.2107C69.859 95.2107 76.7091 88.3772 76.7091 79.949C76.7091 71.5175 69.859 64.684 61.4077 64.684C52.9564 64.684 46.1033 71.5175 46.1033 79.949C46.1033 88.3772 52.9564 95.2107 61.4077 95.2107Z" fill="#63A6FF"/>
<path d="M103.697 124.077C130.896 124.077 152.942 102.084 152.942 74.954C152.942 47.8242 130.896 25.8311 103.697 25.8311C76.4981 25.8311 54.4524 47.8242 54.4524 74.954C54.4524 102.084 76.4981 124.077 103.697 124.077Z" fill="#365DEC"/>
<path d="M76.4293 34.1539C70.4294 38.1307 65.3752 43.3761 61.6257 49.5111C57.8728 55.6494 55.5203 62.5356 54.7295 69.6789C94.5147 71.066 123.173 57.4682 128.738 52.1964C134.303 46.9214 99.2461 39.7057 76.4293 34.1539Z" fill="#1839AD"/>
<path d="M87.2829 94.3806H86.726C84.9073 94.206 83.1776 93.5107 81.7443 92.3806C80.3111 91.2472 79.2402 89.725 78.657 87.9952C78.4692 87.4054 78.5054 86.7662 78.7624 86.2028C79.0194 85.6394 79.4774 85.1913 80.0474 84.9441C80.6405 84.8091 81.26 84.875 81.8135 85.1254C82.3638 85.3758 82.8185 85.7975 83.1084 86.3313C83.3522 87.2374 83.8463 88.0545 84.5382 88.6937C85.2269 89.3329 86.0802 89.7645 87.0027 89.9391C88.1856 89.8205 89.3191 89.4021 90.2944 88.7201C91.2663 88.0413 92.0505 87.1221 92.5678 86.0545C92.7161 85.7975 92.9105 85.5735 93.1412 85.3956C93.3751 85.2143 93.6419 85.0826 93.9252 85.0068C94.2086 84.9277 94.5052 84.9079 94.7984 84.9441C95.0917 84.9804 95.3718 85.0759 95.6288 85.2209C95.8858 85.3659 96.1099 85.5603 96.2878 85.7942C96.469 86.0249 96.6039 86.2918 96.6797 86.5751C96.7588 86.8585 96.7785 87.155 96.7423 87.4449C96.7027 87.7382 96.6106 88.0182 96.4623 88.2752C95.6189 90.0182 94.3239 91.5042 92.7094 92.5783C91.0949 93.6524 89.2202 94.2752 87.2829 94.3806Z" fill="#1839AD"/>
<path d="M147.657 95.2109C156.876 95.2109 164.352 87.7579 164.352 78.562C164.352 69.3628 156.876 61.9098 147.657 61.9098C138.438 61.9098 130.963 69.3628 130.963 78.562C130.963 87.7579 138.438 95.2109 147.657 95.2109Z" fill="#4293FF"/>
<path d="M162.046 79.4645C162.573 73.6623 159.901 68.6805 156.076 68.3313C152.25 67.9853 148.722 72.407 148.191 78.2059C147.661 84.0081 150.333 88.9899 154.161 89.3392C157.987 89.6851 161.515 85.2635 162.046 79.4645Z" fill="#66A8FF"/>
<path d="M103.975 24.9975C95.8827 24.8855 87.8927 26.8097 80.7462 30.5922C73.5964 34.3779 67.5208 39.8968 63.076 46.6446C81.7183 48.3085 138.475 55.2475 149.328 56.6346C142.093 38.8721 124.564 24.9975 103.975 24.9975Z" fill="url(#paint0_linear_308_987)"/>
<path d="M124.564 58.302H124.007C123.731 58.302 89.2302 53.3038 36.9246 49.1424C36.5951 49.1094 36.2755 49.0073 35.9822 48.8492C35.6923 48.691 35.4353 48.4768 35.2277 48.2198C35.0234 47.9595 34.8687 47.663 34.7764 47.3467C34.6875 47.0271 34.6577 46.6943 34.6972 46.3681C34.6873 46.0222 34.7565 45.6795 34.9015 45.3665C35.0465 45.0535 35.2608 44.7767 35.531 44.5625C35.8011 44.3484 36.1173 44.1968 36.4566 44.1243C36.796 44.0519 37.1453 44.0618 37.478 44.1474C89.787 48.3088 124.564 53.3038 124.844 53.3038C125.503 53.4916 126.083 53.8935 126.485 54.4471C126.89 55.0006 127.095 55.6728 127.068 56.3581C126.9 56.8984 126.571 57.3729 126.123 57.7188C125.675 58.0681 125.131 58.2691 124.564 58.302Z" fill="#0E2369"/>
<path d="M75.596 77.4516H74.7624C73.83 76.9146 72.7756 76.6312 71.7015 76.6312C70.6273 76.6312 69.5697 76.9146 68.6405 77.4516C68.367 77.59 68.0705 77.6691 67.7641 77.6888C67.461 77.7086 67.1547 77.6625 66.868 77.5603C66.5813 77.4549 66.3177 77.2935 66.097 77.0826C65.8762 76.875 65.6984 76.6213 65.5797 76.3412C65.4315 76.0842 65.3359 75.8042 65.2964 75.5109C65.2601 75.221 65.2799 74.9244 65.3557 74.6411C65.4348 74.3544 65.5666 74.0909 65.7511 73.8569C65.9323 73.6263 66.1563 73.4319 66.4133 73.2869C68.0047 72.4599 69.7707 72.0283 71.5631 72.0283C73.3555 72.0283 75.1216 72.4599 76.7097 73.2869C76.9898 73.4055 77.2435 73.5834 77.4544 73.8042C77.6652 74.025 77.8266 74.2853 77.932 74.5719C78.0341 74.8586 78.0803 75.165 78.0605 75.4681C78.0407 75.7712 77.9618 76.0678 77.8234 76.3412C77.5631 76.6839 77.2269 76.964 76.8414 77.1584C76.4526 77.3495 76.0276 77.4516 75.596 77.4516Z" fill="#13212B"/>
<path d="M107.872 77.4517H106.758C105.879 76.9113 104.867 76.6246 103.836 76.6246C102.804 76.6246 101.793 76.9113 100.917 77.4517C100.66 77.5999 100.376 77.6954 100.086 77.7317C99.7929 77.7712 99.4964 77.7515 99.2098 77.6724C98.9264 77.5966 98.6596 77.4615 98.4257 77.2803C98.1917 77.0991 98.0005 76.875 97.8555 76.618C97.648 76.3709 97.4964 76.0843 97.4107 75.7746C97.3283 75.4649 97.3086 75.1419 97.3647 74.8256C97.4174 74.5093 97.536 74.2062 97.7172 73.9426C97.8984 73.6758 98.1356 73.4517 98.4124 73.2869C100.007 72.3347 101.836 71.8306 103.697 71.8306C105.559 71.8306 107.388 72.3347 108.982 73.2869C109.477 73.6691 109.829 74.2062 109.981 74.8092C110.132 75.4121 110.073 76.0513 109.819 76.618C109.589 76.908 109.289 77.1353 108.949 77.2803C108.61 77.4253 108.238 77.4846 107.872 77.4517Z" fill="#13212B"/>
<path d="M94.8647 40.5197C97.55 38.2265 98.3472 34.7603 96.647 32.7834C94.9469 30.8032 91.3918 31.0602 88.7098 33.3534C86.0245 35.6499 85.2273 39.1128 86.9274 41.093C88.6276 43.0699 92.1827 42.8162 94.8647 40.5197Z" fill="#CCBDFF"/>
<path d="M152.666 116.581C138.198 116.304 129.852 136.011 129.015 163.206C129.015 163.206 106.202 166.261 92.0109 169.592C77.8233 172.92 73.6487 181.246 74.4823 188.184C75.3192 195.123 81.441 202.062 100.637 202.062H107.035L118.999 200.952C160.178 195.957 179.097 175.697 177.707 152.94C176.873 137.121 171.028 123.797 152.666 116.581Z" fill="#365DEC"/>
<path d="M88.9494 152.66C84.4981 148.498 73.0914 147.945 56.6765 153.217C56.3997 141.592 58.2877 130.017 62.2416 119.079C34.1398 127.405 19.9522 154.88 28.5748 173.2C37.2007 191.516 57.51 186.798 72.5345 180.692C100.079 169.035 95.9081 158.768 88.9494 152.66Z" fill="#365DEC"/>
<path d="M129.015 163.206L138.198 162.096C142.373 161.819 140.979 157.658 138.198 158.488L129.015 160.709V163.206Z" fill="#1A3EBD"/>
<path d="M42.7659 153.77C37.4776 154.327 37.4776 159.875 42.209 157.935C46.9009 155.987 51.7377 154.409 56.6766 153.216V152.106L42.7659 153.77Z" fill="#1A3EBD"/>
<path d="M122.059 157.101H121.783L102.027 154.88C101.71 154.818 101.424 154.643 101.22 154.389C101.015 154.136 100.91 153.819 100.916 153.493C100.814 149.562 101.282 145.635 102.307 141.836C102.475 141.474 102.755 141.174 103.104 140.976C103.453 140.775 103.855 140.689 104.254 140.729C104.597 140.904 104.867 141.197 105.019 141.549C105.173 141.905 105.196 142.301 105.088 142.67C104.231 145.744 103.763 148.917 103.697 152.106L120.669 154.05C120.88 150.488 121.44 146.956 122.34 143.503C122.399 143.312 122.498 143.134 122.633 142.986C122.768 142.834 122.936 142.716 123.12 142.637C123.305 142.558 123.506 142.521 123.707 142.525C123.908 142.531 124.106 142.581 124.287 142.67C124.844 142.67 125.4 143.503 125.12 144.337C124.178 148.06 123.618 151.875 123.453 155.714C123.377 156.129 123.183 156.515 122.896 156.824L122.059 157.101Z" fill="#F0B576"/>
</g>
<defs>
<linearGradient id="paint0_linear_308_987" x1="63.1321" y1="40.76" x2="149.384" y2="40.76" gradientUnits="userSpaceOnUse">
<stop stop-color="#9E2FAD"/>
<stop offset="1" stop-color="#B84DCF"/>
</linearGradient>
<clipPath id="clip0_308_987">
<rect width="200" height="200" rx="100" fill="white"/>
</clipPath>
</defs>
</svg>
